{
	"patcher" : 	{
		"fileversion" : 1,
		"rect" : [ 890.0, 44.0, 685.0, 980.0 ],
		"bglocked" : 0,
		"defrect" : [ 890.0, 44.0, 685.0, 980.0 ],
		"openrect" : [ 0.0, 0.0, 0.0, 0.0 ],
		"openinpresentation" : 0,
		"default_fontsize" : 12.0,
		"default_fontface" : 0,
		"default_fontname" : "Arial",
		"gridonopen" : 0,
		"gridsize" : [ 5.0, 5.0 ],
		"gridsnaponopen" : 0,
		"toolbarvisible" : 1,
		"boxanimatetime" : 200,
		"imprint" : 0,
		"enablehscroll" : 1,
		"enablevscroll" : 1,
		"devicewidth" : 0.0,
		"boxes" : [ 			{
				"box" : 				{
					"maxclass" : "newobj",
					"text" : "zl ecils 1",
					"fontsize" : 12.0,
					"patching_rect" : [ 245.0, 745.0, 59.0, 20.0 ],
					"numinlets" : 2,
					"id" : "obj-41",
					"numoutlets" : 2,
					"fontname" : "Arial",
					"outlettype" : [ "", "" ]
				}

			}
, 			{
				"box" : 				{
					"maxclass" : "newobj",
					"text" : "r len",
					"fontsize" : 12.0,
					"patching_rect" : [ 280.0, 675.0, 34.0, 20.0 ],
					"numinlets" : 0,
					"id" : "obj-40",
					"numoutlets" : 1,
					"fontname" : "Arial",
					"outlettype" : [ "" ]
				}

			}
, 			{
				"box" : 				{
					"maxclass" : "newobj",
					"text" : "s len",
					"fontsize" : 12.0,
					"patching_rect" : [ 220.0, 130.0, 36.0, 20.0 ],
					"numinlets" : 1,
					"id" : "obj-38",
					"numoutlets" : 0,
					"fontname" : "Arial"
				}

			}
, 			{
				"box" : 				{
					"maxclass" : "newobj",
					"text" : "zl len",
					"fontsize" : 12.0,
					"patching_rect" : [ 220.0, 95.0, 39.0, 20.0 ],
					"numinlets" : 2,
					"id" : "obj-37",
					"numoutlets" : 2,
					"fontname" : "Arial",
					"outlettype" : [ "", "" ]
				}

			}
, 			{
				"box" : 				{
					"maxclass" : "newobj",
					"text" : "zl group",
					"fontsize" : 12.0,
					"patching_rect" : [ 245.0, 710.0, 54.0, 20.0 ],
					"numinlets" : 2,
					"id" : "obj-36",
					"numoutlets" : 2,
					"fontname" : "Arial",
					"outlettype" : [ "", "" ]
				}

			}
, 			{
				"box" : 				{
					"maxclass" : "inlet",
					"patching_rect" : [ 130.0, 10.0, 25.0, 25.0 ],
					"numinlets" : 0,
					"id" : "obj-65",
					"numoutlets" : 1,
					"outlettype" : [ "" ],
					"comment" : ""
				}

			}
, 			{
				"box" : 				{
					"maxclass" : "newobj",
					"text" : "if $i1 == 254 || $i1 == 255 || $i1 == 2 then 99 else $i1",
					"fontsize" : 12.0,
					"patching_rect" : [ 245.0, 645.0, 291.0, 20.0 ],
					"numinlets" : 1,
					"id" : "obj-62",
					"numoutlets" : 1,
					"fontname" : "Arial",
					"outlettype" : [ "" ]
				}

			}
, 			{
				"box" : 				{
					"maxclass" : "outlet",
					"patching_rect" : [ 285.0, 780.0, 25.0, 25.0 ],
					"numinlets" : 1,
					"id" : "obj-61",
					"numoutlets" : 0,
					"comment" : ""
				}

			}
, 			{
				"box" : 				{
					"maxclass" : "newobj",
					"text" : "t l 0",
					"fontsize" : 12.0,
					"patching_rect" : [ 130.0, 50.0, 32.5, 20.0 ],
					"numinlets" : 1,
					"id" : "obj-59",
					"numoutlets" : 2,
					"fontname" : "Arial",
					"outlettype" : [ "", "int" ]
				}

			}
, 			{
				"box" : 				{
					"maxclass" : "newobj",
					"text" : "zl iter 1",
					"fontsize" : 12.0,
					"patching_rect" : [ 130.0, 95.0, 49.0, 20.0 ],
					"numinlets" : 2,
					"id" : "obj-58",
					"numoutlets" : 2,
					"fontname" : "Arial",
					"outlettype" : [ "", "" ]
				}

			}
, 			{
				"box" : 				{
					"maxclass" : "newobj",
					"text" : "r gate",
					"fontsize" : 12.0,
					"patching_rect" : [ 335.0, 575.0, 41.0, 20.0 ],
					"numinlets" : 0,
					"id" : "obj-54",
					"numoutlets" : 1,
					"fontname" : "Arial",
					"outlettype" : [ "" ]
				}

			}
, 			{
				"box" : 				{
					"maxclass" : "newobj",
					"text" : "if $i2 == 0 then $i1",
					"fontsize" : 12.0,
					"patching_rect" : [ 245.0, 605.0, 109.0, 20.0 ],
					"numinlets" : 2,
					"id" : "obj-49",
					"numoutlets" : 1,
					"fontname" : "Arial",
					"outlettype" : [ "" ]
				}

			}
, 			{
				"box" : 				{
					"maxclass" : "newobj",
					"text" : "t b i",
					"fontsize" : 12.0,
					"patching_rect" : [ 230.0, 520.0, 33.5, 20.0 ],
					"numinlets" : 1,
					"id" : "obj-29",
					"numoutlets" : 2,
					"fontname" : "Arial",
					"outlettype" : [ "bang", "int" ]
				}

			}
, 			{
				"box" : 				{
					"maxclass" : "newobj",
					"text" : "pv C",
					"fontsize" : 12.0,
					"patching_rect" : [ 350.0, 300.0, 35.0, 20.0 ],
					"numinlets" : 1,
					"id" : "obj-26",
					"numoutlets" : 1,
					"fontname" : "Arial",
					"outlettype" : [ "" ]
				}

			}
, 			{
				"box" : 				{
					"maxclass" : "message",
					"text" : "set 0",
					"fontsize" : 12.0,
					"patching_rect" : [ 95.0, 185.0, 37.0, 18.0 ],
					"numinlets" : 2,
					"id" : "obj-12",
					"numoutlets" : 1,
					"fontname" : "Arial",
					"outlettype" : [ "" ]
				}

			}
, 			{
				"box" : 				{
					"maxclass" : "newobj",
					"text" : "s gate",
					"fontsize" : 12.0,
					"patching_rect" : [ 190.0, 195.0, 43.0, 20.0 ],
					"numinlets" : 1,
					"id" : "obj-14",
					"numoutlets" : 0,
					"fontname" : "Arial"
				}

			}
, 			{
				"box" : 				{
					"maxclass" : "newobj",
					"text" : "r gate",
					"fontsize" : 12.0,
					"patching_rect" : [ 115.0, 745.0, 41.0, 20.0 ],
					"numinlets" : 0,
					"id" : "obj-11",
					"numoutlets" : 1,
					"fontname" : "Arial",
					"outlettype" : [ "" ]
				}

			}
, 			{
				"box" : 				{
					"maxclass" : "newobj",
					"text" : "s gate",
					"fontsize" : 12.0,
					"patching_rect" : [ 200.0, 330.0, 43.0, 20.0 ],
					"numinlets" : 1,
					"id" : "obj-10",
					"numoutlets" : 0,
					"fontname" : "Arial"
				}

			}
, 			{
				"box" : 				{
					"maxclass" : "newobj",
					"text" : "t b 0",
					"fontsize" : 12.0,
					"patching_rect" : [ 185.0, 300.0, 34.0, 20.0 ],
					"numinlets" : 1,
					"id" : "obj-9",
					"numoutlets" : 2,
					"fontname" : "Arial",
					"outlettype" : [ "bang", "int" ]
				}

			}
, 			{
				"box" : 				{
					"maxclass" : "newobj",
					"text" : "gate",
					"fontsize" : 12.0,
					"patching_rect" : [ 115.0, 780.0, 34.0, 20.0 ],
					"numinlets" : 2,
					"id" : "obj-78",
					"numoutlets" : 1,
					"fontname" : "Arial",
					"outlettype" : [ "" ]
				}

			}
, 			{
				"box" : 				{
					"maxclass" : "newobj",
					"text" : "t b i",
					"fontsize" : 12.0,
					"patching_rect" : [ 130.0, 675.0, 33.5, 20.0 ],
					"numinlets" : 1,
					"id" : "obj-76",
					"numoutlets" : 2,
					"fontname" : "Arial",
					"outlettype" : [ "bang", "int" ]
				}

			}
, 			{
				"box" : 				{
					"maxclass" : "newobj",
					"text" : "t b i",
					"fontsize" : 12.0,
					"patching_rect" : [ 130.0, 520.0, 33.5, 20.0 ],
					"numinlets" : 1,
					"id" : "obj-75",
					"numoutlets" : 2,
					"fontname" : "Arial",
					"outlettype" : [ "bang", "int" ]
				}

			}
, 			{
				"box" : 				{
					"maxclass" : "newobj",
					"text" : "pv C",
					"fontsize" : 12.0,
					"patching_rect" : [ 145.0, 710.0, 35.0, 20.0 ],
					"numinlets" : 1,
					"id" : "obj-67",
					"numoutlets" : 1,
					"fontname" : "Arial",
					"outlettype" : [ "" ]
				}

			}
, 			{
				"box" : 				{
					"maxclass" : "newobj",
					"text" : "expr $i1 >> 1",
					"fontsize" : 12.0,
					"patching_rect" : [ 130.0, 645.0, 81.0, 20.0 ],
					"numinlets" : 1,
					"id" : "obj-66",
					"numoutlets" : 1,
					"fontname" : "Arial",
					"outlettype" : [ "" ]
				}

			}
, 			{
				"box" : 				{
					"maxclass" : "newobj",
					"text" : "pv C",
					"fontsize" : 12.0,
					"patching_rect" : [ 130.0, 605.0, 35.0, 20.0 ],
					"numinlets" : 1,
					"id" : "obj-64",
					"numoutlets" : 1,
					"fontname" : "Arial",
					"outlettype" : [ "" ]
				}

			}
, 			{
				"box" : 				{
					"maxclass" : "newobj",
					"text" : "pv CRC",
					"fontsize" : 12.0,
					"patching_rect" : [ 260.0, 555.0, 53.0, 20.0 ],
					"numinlets" : 1,
					"id" : "obj-60",
					"numoutlets" : 1,
					"fontname" : "Arial",
					"outlettype" : [ "" ]
				}

			}
, 			{
				"box" : 				{
					"maxclass" : "newobj",
					"text" : "expr ((($i1 ^ 24) >> 1)) | 128",
					"fontsize" : 12.0,
					"patching_rect" : [ 230.0, 485.0, 160.0, 20.0 ],
					"numinlets" : 1,
					"id" : "obj-57",
					"numoutlets" : 1,
					"fontname" : "Arial",
					"outlettype" : [ "" ]
				}

			}
, 			{
				"box" : 				{
					"maxclass" : "newobj",
					"text" : "pv CRC",
					"fontsize" : 12.0,
					"patching_rect" : [ 145.0, 555.0, 53.0, 20.0 ],
					"numinlets" : 1,
					"id" : "obj-56",
					"numoutlets" : 1,
					"fontname" : "Arial",
					"outlettype" : [ "" ]
				}

			}
, 			{
				"box" : 				{
					"maxclass" : "newobj",
					"text" : "expr $i1 >> 1",
					"fontsize" : 12.0,
					"patching_rect" : [ 130.0, 485.0, 81.0, 20.0 ],
					"numinlets" : 1,
					"id" : "obj-55",
					"numoutlets" : 1,
					"fontname" : "Arial",
					"outlettype" : [ "" ]
				}

			}
, 			{
				"box" : 				{
					"maxclass" : "newobj",
					"text" : "pv C",
					"fontsize" : 12.0,
					"patching_rect" : [ 160.0, 165.0, 35.0, 20.0 ],
					"numinlets" : 1,
					"id" : "obj-53",
					"numoutlets" : 1,
					"fontname" : "Arial",
					"outlettype" : [ "" ]
				}

			}
, 			{
				"box" : 				{
					"maxclass" : "newobj",
					"text" : "pv C",
					"fontsize" : 12.0,
					"patching_rect" : [ 345.0, 95.0, 35.0, 20.0 ],
					"numinlets" : 1,
					"id" : "obj-52",
					"numoutlets" : 1,
					"fontname" : "Arial",
					"outlettype" : [ "" ]
				}

			}
, 			{
				"box" : 				{
					"maxclass" : "newobj",
					"text" : "t b i",
					"fontsize" : 12.0,
					"patching_rect" : [ 130.0, 390.0, 32.5, 20.0 ],
					"numinlets" : 1,
					"id" : "obj-47",
					"numoutlets" : 2,
					"fontname" : "Arial",
					"outlettype" : [ "bang", "int" ]
				}

			}
, 			{
				"box" : 				{
					"maxclass" : "newobj",
					"text" : "pv CRC",
					"fontsize" : 12.0,
					"patching_rect" : [ 155.0, 420.0, 53.0, 20.0 ],
					"numinlets" : 1,
					"id" : "obj-46",
					"numoutlets" : 1,
					"fontname" : "Arial",
					"outlettype" : [ "" ]
				}

			}
, 			{
				"box" : 				{
					"maxclass" : "newobj",
					"text" : "gate 2",
					"fontsize" : 12.0,
					"patching_rect" : [ 130.0, 450.0, 44.0, 20.0 ],
					"numinlets" : 2,
					"id" : "obj-39",
					"numoutlets" : 2,
					"fontname" : "Arial",
					"outlettype" : [ "", "" ]
				}

			}
, 			{
				"box" : 				{
					"maxclass" : "newobj",
					"text" : "if ((($i1 ^ $i2) & 0x01) == 0) then 1 else 2",
					"fontsize" : 12.0,
					"patching_rect" : [ 130.0, 355.0, 239.0, 20.0 ],
					"numinlets" : 2,
					"id" : "obj-33",
					"numoutlets" : 1,
					"fontname" : "Arial",
					"outlettype" : [ "" ]
				}

			}
, 			{
				"box" : 				{
					"maxclass" : "newobj",
					"text" : "t b b",
					"fontsize" : 12.0,
					"patching_rect" : [ 130.0, 260.0, 34.0, 20.0 ],
					"numinlets" : 1,
					"id" : "obj-31",
					"numoutlets" : 2,
					"fontname" : "Arial",
					"outlettype" : [ "bang", "bang" ]
				}

			}
, 			{
				"box" : 				{
					"maxclass" : "newobj",
					"text" : "counter 0 7",
					"fontsize" : 12.0,
					"patching_rect" : [ 130.0, 225.0, 101.0, 20.0 ],
					"numinlets" : 5,
					"id" : "obj-25",
					"numoutlets" : 4,
					"fontname" : "Arial",
					"outlettype" : [ "int", "", "", "int" ]
				}

			}
, 			{
				"box" : 				{
					"maxclass" : "newobj",
					"text" : "pv CRC",
					"fontsize" : 12.0,
					"patching_rect" : [ 130.0, 300.0, 53.0, 20.0 ],
					"numinlets" : 1,
					"id" : "obj-20",
					"numoutlets" : 1,
					"fontname" : "Arial",
					"outlettype" : [ "" ]
				}

			}
, 			{
				"box" : 				{
					"maxclass" : "newobj",
					"text" : "loadmess 0",
					"fontsize" : 12.0,
					"patching_rect" : [ 280.0, 50.0, 72.0, 20.0 ],
					"numinlets" : 1,
					"id" : "obj-19",
					"numoutlets" : 1,
					"fontname" : "Arial",
					"outlettype" : [ "" ]
				}

			}
, 			{
				"box" : 				{
					"maxclass" : "newobj",
					"text" : "pv CRC",
					"fontsize" : 12.0,
					"patching_rect" : [ 280.0, 95.0, 53.0, 20.0 ],
					"numinlets" : 1,
					"id" : "obj-18",
					"numoutlets" : 1,
					"fontname" : "Arial",
					"outlettype" : [ "" ]
				}

			}
, 			{
				"box" : 				{
					"maxclass" : "newobj",
					"text" : "t b i 1",
					"fontsize" : 12.0,
					"patching_rect" : [ 130.0, 130.0, 78.0, 20.0 ],
					"numinlets" : 1,
					"id" : "obj-7",
					"numoutlets" : 3,
					"fontname" : "Arial",
					"outlettype" : [ "bang", "int", "int" ]
				}

			}
 ],
		"lines" : [ 			{
				"patchline" : 				{
					"source" : [ "obj-41", 1 ],
					"destination" : [ "obj-61", 0 ],
					"hidden" : 0,
					"midpoints" : [  ]
				}

			}
, 			{
				"patchline" : 				{
					"source" : [ "obj-36", 0 ],
					"destination" : [ "obj-41", 0 ],
					"hidden" : 0,
					"midpoints" : [  ]
				}

			}
, 			{
				"patchline" : 				{
					"source" : [ "obj-40", 0 ],
					"destination" : [ "obj-36", 1 ],
					"hidden" : 0,
					"midpoints" : [  ]
				}

			}
, 			{
				"patchline" : 				{
					"source" : [ "obj-37", 0 ],
					"destination" : [ "obj-38", 0 ],
					"hidden" : 0,
					"midpoints" : [  ]
				}

			}
, 			{
				"patchline" : 				{
					"source" : [ "obj-59", 0 ],
					"destination" : [ "obj-37", 0 ],
					"hidden" : 0,
					"midpoints" : [  ]
				}

			}
, 			{
				"patchline" : 				{
					"source" : [ "obj-62", 0 ],
					"destination" : [ "obj-36", 0 ],
					"hidden" : 0,
					"midpoints" : [  ]
				}

			}
, 			{
				"patchline" : 				{
					"source" : [ "obj-49", 0 ],
					"destination" : [ "obj-62", 0 ],
					"hidden" : 0,
					"midpoints" : [  ]
				}

			}
, 			{
				"patchline" : 				{
					"source" : [ "obj-54", 0 ],
					"destination" : [ "obj-49", 1 ],
					"hidden" : 0,
					"midpoints" : [  ]
				}

			}
, 			{
				"patchline" : 				{
					"source" : [ "obj-29", 1 ],
					"destination" : [ "obj-49", 0 ],
					"hidden" : 0,
					"midpoints" : [  ]
				}

			}
, 			{
				"patchline" : 				{
					"source" : [ "obj-75", 1 ],
					"destination" : [ "obj-49", 0 ],
					"hidden" : 0,
					"midpoints" : [  ]
				}

			}
, 			{
				"patchline" : 				{
					"source" : [ "obj-65", 0 ],
					"destination" : [ "obj-59", 0 ],
					"hidden" : 0,
					"midpoints" : [  ]
				}

			}
, 			{
				"patchline" : 				{
					"source" : [ "obj-59", 1 ],
					"destination" : [ "obj-52", 0 ],
					"hidden" : 0,
					"midpoints" : [  ]
				}

			}
, 			{
				"patchline" : 				{
					"source" : [ "obj-59", 1 ],
					"destination" : [ "obj-18", 0 ],
					"hidden" : 0,
					"midpoints" : [  ]
				}

			}
, 			{
				"patchline" : 				{
					"source" : [ "obj-59", 0 ],
					"destination" : [ "obj-58", 0 ],
					"hidden" : 0,
					"midpoints" : [  ]
				}

			}
, 			{
				"patchline" : 				{
					"source" : [ "obj-58", 0 ],
					"destination" : [ "obj-7", 0 ],
					"hidden" : 0,
					"midpoints" : [  ]
				}

			}
, 			{
				"patchline" : 				{
					"source" : [ "obj-9", 1 ],
					"destination" : [ "obj-10", 0 ],
					"hidden" : 0,
					"midpoints" : [  ]
				}

			}
, 			{
				"patchline" : 				{
					"source" : [ "obj-9", 0 ],
					"destination" : [ "obj-12", 0 ],
					"hidden" : 0,
					"midpoints" : [ 194.5, 339.0, 67.0, 339.0, 67.0, 174.0, 104.5, 174.0 ]
				}

			}
, 			{
				"patchline" : 				{
					"source" : [ "obj-25", 2 ],
					"destination" : [ "obj-9", 0 ],
					"hidden" : 0,
					"midpoints" : [  ]
				}

			}
, 			{
				"patchline" : 				{
					"source" : [ "obj-12", 0 ],
					"destination" : [ "obj-25", 0 ],
					"hidden" : 0,
					"midpoints" : [  ]
				}

			}
, 			{
				"patchline" : 				{
					"source" : [ "obj-7", 1 ],
					"destination" : [ "obj-53", 0 ],
					"hidden" : 0,
					"midpoints" : [  ]
				}

			}
, 			{
				"patchline" : 				{
					"source" : [ "obj-7", 2 ],
					"destination" : [ "obj-14", 0 ],
					"hidden" : 0,
					"midpoints" : [  ]
				}

			}
, 			{
				"patchline" : 				{
					"source" : [ "obj-7", 0 ],
					"destination" : [ "obj-25", 0 ],
					"hidden" : 0,
					"midpoints" : [  ]
				}

			}
, 			{
				"patchline" : 				{
					"source" : [ "obj-76", 0 ],
					"destination" : [ "obj-78", 1 ],
					"hidden" : 0,
					"midpoints" : [  ]
				}

			}
, 			{
				"patchline" : 				{
					"source" : [ "obj-29", 0 ],
					"destination" : [ "obj-64", 0 ],
					"hidden" : 0,
					"midpoints" : [ 239.5, 591.0, 139.5, 591.0 ]
				}

			}
, 			{
				"patchline" : 				{
					"source" : [ "obj-75", 0 ],
					"destination" : [ "obj-64", 0 ],
					"hidden" : 0,
					"midpoints" : [  ]
				}

			}
, 			{
				"patchline" : 				{
					"source" : [ "obj-29", 1 ],
					"destination" : [ "obj-60", 0 ],
					"hidden" : 0,
					"midpoints" : [  ]
				}

			}
, 			{
				"patchline" : 				{
					"source" : [ "obj-57", 0 ],
					"destination" : [ "obj-29", 0 ],
					"hidden" : 0,
					"midpoints" : [  ]
				}

			}
, 			{
				"patchline" : 				{
					"source" : [ "obj-55", 0 ],
					"destination" : [ "obj-75", 0 ],
					"hidden" : 0,
					"midpoints" : [  ]
				}

			}
, 			{
				"patchline" : 				{
					"source" : [ "obj-47", 0 ],
					"destination" : [ "obj-46", 0 ],
					"hidden" : 0,
					"midpoints" : [  ]
				}

			}
, 			{
				"patchline" : 				{
					"source" : [ "obj-47", 1 ],
					"destination" : [ "obj-39", 0 ],
					"hidden" : 0,
					"midpoints" : [  ]
				}

			}
, 			{
				"patchline" : 				{
					"source" : [ "obj-20", 0 ],
					"destination" : [ "obj-33", 0 ],
					"hidden" : 0,
					"midpoints" : [  ]
				}

			}
, 			{
				"patchline" : 				{
					"source" : [ "obj-26", 0 ],
					"destination" : [ "obj-33", 1 ],
					"hidden" : 0,
					"midpoints" : [  ]
				}

			}
, 			{
				"patchline" : 				{
					"source" : [ "obj-31", 1 ],
					"destination" : [ "obj-26", 0 ],
					"hidden" : 0,
					"midpoints" : [ 154.5, 288.0, 359.5, 288.0 ]
				}

			}
, 			{
				"patchline" : 				{
					"source" : [ "obj-31", 0 ],
					"destination" : [ "obj-20", 0 ],
					"hidden" : 0,
					"midpoints" : [  ]
				}

			}
, 			{
				"patchline" : 				{
					"source" : [ "obj-25", 0 ],
					"destination" : [ "obj-31", 0 ],
					"hidden" : 0,
					"midpoints" : [  ]
				}

			}
, 			{
				"patchline" : 				{
					"source" : [ "obj-78", 0 ],
					"destination" : [ "obj-25", 0 ],
					"hidden" : 0,
					"midpoints" : [ 124.5, 833.0, 98.0, 833.0, 98.0, 218.0, 139.5, 218.0 ]
				}

			}
, 			{
				"patchline" : 				{
					"source" : [ "obj-19", 0 ],
					"destination" : [ "obj-18", 0 ],
					"hidden" : 0,
					"midpoints" : [  ]
				}

			}
, 			{
				"patchline" : 				{
					"source" : [ "obj-33", 0 ],
					"destination" : [ "obj-47", 0 ],
					"hidden" : 0,
					"midpoints" : [  ]
				}

			}
, 			{
				"patchline" : 				{
					"source" : [ "obj-46", 0 ],
					"destination" : [ "obj-39", 1 ],
					"hidden" : 0,
					"midpoints" : [  ]
				}

			}
, 			{
				"patchline" : 				{
					"source" : [ "obj-19", 0 ],
					"destination" : [ "obj-52", 0 ],
					"hidden" : 0,
					"midpoints" : [  ]
				}

			}
, 			{
				"patchline" : 				{
					"source" : [ "obj-39", 0 ],
					"destination" : [ "obj-55", 0 ],
					"hidden" : 0,
					"midpoints" : [  ]
				}

			}
, 			{
				"patchline" : 				{
					"source" : [ "obj-39", 1 ],
					"destination" : [ "obj-57", 0 ],
					"hidden" : 0,
					"midpoints" : [  ]
				}

			}
, 			{
				"patchline" : 				{
					"source" : [ "obj-64", 0 ],
					"destination" : [ "obj-66", 0 ],
					"hidden" : 0,
					"midpoints" : [  ]
				}

			}
, 			{
				"patchline" : 				{
					"source" : [ "obj-75", 1 ],
					"destination" : [ "obj-56", 0 ],
					"hidden" : 0,
					"midpoints" : [  ]
				}

			}
, 			{
				"patchline" : 				{
					"source" : [ "obj-66", 0 ],
					"destination" : [ "obj-76", 0 ],
					"hidden" : 0,
					"midpoints" : [  ]
				}

			}
, 			{
				"patchline" : 				{
					"source" : [ "obj-76", 1 ],
					"destination" : [ "obj-67", 0 ],
					"hidden" : 0,
					"midpoints" : [  ]
				}

			}
, 			{
				"patchline" : 				{
					"source" : [ "obj-11", 0 ],
					"destination" : [ "obj-78", 0 ],
					"hidden" : 0,
					"midpoints" : [  ]
				}

			}
 ]
	}

}
